# Blender 4.4.0
# www.blender.org
mtllib Asteroide 1.mtl
o Cube.001
v -0.470645 0.500000 -0.479272
v -0.470645 -0.500000 -0.479272
v -0.470645 0.500000 0.520728
v -0.470645 -0.500000 0.520728
v -1.470646 0.500000 -0.479272
v -1.470646 -0.500000 -0.479272
v -1.470646 0.500000 0.520728
v -1.470646 -0.500000 0.520728
v 0.500000 0.500000 0.045106
v 0.500000 -0.500000 0.045106
v 0.500000 0.500000 1.045106
v 0.500000 -0.500000 1.045106
v -0.500000 0.500000 0.045106
v -0.500000 -0.500000 0.045106
v -0.500000 0.500000 1.045106
v -0.500000 -0.500000 1.045106
v 0.031959 0.778134 -0.446722
v 0.031959 -0.221867 -0.446722
v 0.031959 0.778134 0.553278
v 0.031959 -0.221867 0.553278
v -0.968041 0.778134 -0.446722
v -0.968041 -0.221867 -0.446722
v -0.968041 0.778134 0.553278
v -0.968041 -0.221867 0.553278
v 0.191407 0.500000 -0.754418
v 0.191407 -0.500000 -0.754418
v 0.191407 0.500000 0.245582
v 0.191407 -0.500000 0.245582
v -0.808593 0.500000 -0.754418
v -0.808593 -0.500000 -0.754418
v -0.808593 0.500000 0.245582
v -0.808593 -0.500000 0.245582
v 0.082251 0.500000 -0.066088
v 0.082251 -0.500000 -0.066088
v 0.082251 0.500000 0.933912
v 0.082251 -0.500000 0.933912
v -0.917749 0.500000 -0.066088
v -0.917749 -0.500000 -0.066088
v -0.917749 0.500000 0.933912
v -0.917749 -0.500000 0.933912
v 0.031959 0.234723 -0.446722
v 0.031959 -0.765277 -0.446722
v 0.031959 0.234723 0.553278
v 0.031959 -0.765277 0.553278
v -0.968041 0.234723 -0.446722
v -0.968041 -0.765277 -0.446722
v -0.968041 0.234723 0.553278
v -0.968041 -0.765277 0.553278
v -1.580213 -0.609568 0.020728
v -0.970645 -0.609568 -0.588840
v -0.361078 0.000000 -0.588840
v -1.580213 -0.000000 0.630296
v -0.361078 0.000000 0.630296
v -1.580213 -0.000000 -0.588840
v -0.970645 0.609568 0.630296
v -0.361078 0.609568 0.020728
v -0.970645 -0.609568 0.630296
v -1.580213 0.609568 0.020728
v -0.970645 0.609568 -0.588840
v -0.361078 -0.609568 0.020728
v -0.609568 -0.609568 0.545106
v 0.000000 -0.609568 -0.064462
v 0.609568 0.000000 -0.064462
v -0.609568 -0.000000 1.154674
v 0.609568 0.000000 1.154674
v -0.609568 -0.000000 -0.064462
v 0.000000 0.609568 1.154674
v 0.609568 0.609568 0.545106
v 0.000000 -0.609568 1.154674
v -0.609568 0.609568 0.545106
v 0.000000 0.609568 -0.064462
v 0.609568 -0.609568 0.545106
v -1.077609 -0.331434 0.053278
v -0.468041 -0.331434 -0.556290
v 0.141527 0.278133 -0.556290
v -1.077609 0.278133 0.662846
v 0.141527 0.278133 0.662846
v -1.077609 0.278133 -0.556290
v -0.468041 0.887701 0.662846
v 0.141527 0.887701 0.053278
v -0.468041 -0.331434 0.662846
v -1.077609 0.887701 0.053278
v -0.468041 0.887701 -0.556290
v 0.141527 -0.331434 0.053278
v -0.918161 -0.609568 -0.254418
v -0.308593 -0.609568 -0.863986
v 0.300974 0.000000 -0.863986
v -0.918161 -0.000000 0.355150
v 0.300974 0.000000 0.355150
v -0.918161 -0.000000 -0.863986
v -0.308593 0.609568 0.355150
v 0.300975 0.609568 -0.254418
v -0.308593 -0.609568 0.355150
v -0.918161 0.609568 -0.254418
v -0.308593 0.609568 -0.863986
v 0.300975 -0.609568 -0.254418
v -1.027317 -0.609568 0.433912
v -0.417749 -0.609568 -0.175656
v 0.191819 0.000000 -0.175656
v -1.027317 -0.000000 1.043480
v 0.191819 0.000000 1.043480
v -1.027317 -0.000000 -0.175656
v -0.417749 0.609568 1.043480
v 0.191819 0.609568 0.433912
v -0.417749 -0.609568 1.043480
v -1.027317 0.609568 0.433912
v -0.417749 0.609568 -0.175656
v 0.191819 -0.609568 0.433912
v -1.077609 -0.874845 0.053278
v -0.468041 -0.874845 -0.556290
v 0.141527 -0.265277 -0.556290
v -1.077609 -0.265277 0.662846
v 0.141527 -0.265277 0.662846
v -1.077609 -0.265277 -0.556290
v -0.468041 0.344291 0.662846
v 0.141527 0.344291 0.053278
v -0.468041 -0.874845 0.662846
v -1.077609 0.344291 0.053278
v -0.468041 0.344291 -0.556290
v 0.141527 -0.874845 0.053278
v -0.970645 0.839506 0.020728
v -0.970645 0.000000 0.860234
v -1.810152 0.000000 0.020728
v -0.970645 -0.839506 0.020728
v -0.131139 0.000000 0.020728
v -0.970645 0.000000 -0.818778
v 0.000000 0.839506 0.545106
v 0.000000 0.000000 1.384612
v -0.839506 0.000000 0.545106
v 0.000000 -0.839506 0.545106
v 0.839506 0.000000 0.545106
v 0.000000 0.000000 -0.294401
v -0.468041 1.117640 0.053278
v -0.468041 0.278133 0.892784
v -1.307547 0.278133 0.053278
v -0.468041 -0.561373 0.053278
v 0.371466 0.278133 0.053278
v -0.468041 0.278133 -0.786228
v -0.308593 0.839506 -0.254418
v -0.308593 0.000000 0.585088
v -1.148100 0.000000 -0.254418
v -0.308593 -0.839506 -0.254418
v 0.530913 0.000000 -0.254418
v -0.308593 0.000000 -1.093924
v -0.417749 0.839506 0.433912
v -0.417749 0.000000 1.273418
v -1.257255 0.000000 0.433912
v -0.417749 -0.839506 0.433912
v 0.421757 0.000000 0.433912
v -0.417749 0.000000 -0.405594
v -0.468041 0.574229 0.053278
v -0.468041 -0.265277 0.892784
v -1.307547 -0.265277 0.053278
v -0.468041 -1.104783 0.053278
v 0.371466 -0.265277 0.053278
v -0.468041 -0.265277 -0.786228
vn 0.3061 0.9015 -0.3061
vn -0.3061 0.9015 -0.3061
vn -0.3061 0.9015 0.3061
vn 0.3061 0.9015 0.3061
vn 0.3061 -0.3061 0.9015
vn 0.3061 0.3061 0.9015
vn -0.3061 0.3061 0.9015
vn -0.3061 -0.3061 0.9015
vn -0.9015 -0.3061 0.3061
vn -0.9015 0.3061 0.3061
vn -0.9015 0.3061 -0.3061
vn -0.9015 -0.3061 -0.3061
vn -0.3061 -0.9015 -0.3061
vn 0.3061 -0.9015 -0.3061
vn 0.3061 -0.9015 0.3061
vn -0.3061 -0.9015 0.3061
vn 0.9015 -0.3061 -0.3061
vn 0.9015 0.3061 -0.3061
vn 0.9015 0.3061 0.3061
vn 0.9015 -0.3061 0.3061
vn -0.3061 -0.3061 -0.9015
vn -0.3061 0.3061 -0.9015
vn 0.3061 0.3061 -0.9015
vn 0.3061 -0.3061 -0.9015
vt 0.625000 0.500000
vt 0.750000 0.500000
vt 0.750000 0.625000
vt 0.625000 0.625000
vt 0.875000 0.500000
vt 0.875000 0.625000
vt 0.875000 0.750000
vt 0.750000 0.750000
vt 0.625000 0.750000
vt 0.375000 0.750000
vt 0.500000 0.750000
vt 0.500000 0.875000
vt 0.375000 0.875000
vt 0.625000 0.875000
vt 0.625000 1.000000
vt 0.500000 1.000000
vt 0.375000 1.000000
vt 0.375000 0.000000
vt 0.500000 0.000000
vt 0.500000 0.125000
vt 0.375000 0.125000
vt 0.625000 0.000000
vt 0.625000 0.125000
vt 0.625000 0.250000
vt 0.500000 0.250000
vt 0.375000 0.250000
vt 0.125000 0.500000
vt 0.250000 0.500000
vt 0.250000 0.625000
vt 0.125000 0.625000
vt 0.375000 0.500000
vt 0.375000 0.625000
vt 0.250000 0.750000
vt 0.125000 0.750000
vt 0.500000 0.500000
vt 0.500000 0.625000
vt 0.500000 0.375000
vt 0.375000 0.375000
vt 0.625000 0.375000
s 0
usemtl Material.001
f 1/1/1 59/2/1 121/3/1 56/4/1
f 59/2/2 5/5/2 58/6/2 121/3/2
f 121/3/3 58/6/3 7/7/3 55/8/3
f 56/4/4 121/3/4 55/8/4 3/9/4
f 4/10/5 53/11/5 122/12/5 57/13/5
f 53/11/6 3/9/6 55/14/6 122/12/6
f 122/12/7 55/14/7 7/15/7 52/16/7
f 57/13/8 122/12/8 52/16/8 8/17/8
f 8/18/9 52/19/9 123/20/9 49/21/9
f 52/19/10 7/22/10 58/23/10 123/20/10
f 123/20/11 58/23/11 5/24/11 54/25/11
f 49/21/12 123/20/12 54/25/12 6/26/12
f 6/27/13 50/28/13 124/29/13 49/30/13
f 50/28/14 2/31/14 60/32/14 124/29/14
f 124/29/15 60/32/15 4/10/15 57/33/15
f 49/30/16 124/29/16 57/33/16 8/34/16
f 2/31/17 51/35/17 125/36/17 60/32/17
f 51/35/18 1/1/18 56/4/18 125/36/18
f 125/36/19 56/4/19 3/9/19 53/11/19
f 60/32/20 125/36/20 53/11/20 4/10/20
f 6/26/21 54/25/21 126/37/21 50/38/21
f 54/25/22 5/24/22 59/39/22 126/37/22
f 126/37/23 59/39/23 1/1/23 51/35/23
f 50/38/24 126/37/24 51/35/24 2/31/24
usemtl Material
f 9/1/1 71/2/1 127/3/1 68/4/1
f 71/2/2 13/5/2 70/6/2 127/3/2
f 127/3/3 70/6/3 15/7/3 67/8/3
f 68/4/4 127/3/4 67/8/4 11/9/4
f 12/10/5 65/11/5 128/12/5 69/13/5
f 65/11/6 11/9/6 67/14/6 128/12/6
f 128/12/7 67/14/7 15/15/7 64/16/7
f 69/13/8 128/12/8 64/16/8 16/17/8
f 16/18/9 64/19/9 129/20/9 61/21/9
f 64/19/10 15/22/10 70/23/10 129/20/10
f 129/20/11 70/23/11 13/24/11 66/25/11
f 61/21/12 129/20/12 66/25/12 14/26/12
f 14/27/13 62/28/13 130/29/13 61/30/13
f 62/28/14 10/31/14 72/32/14 130/29/14
f 130/29/15 72/32/15 12/10/15 69/33/15
f 61/30/16 130/29/16 69/33/16 16/34/16
f 10/31/17 63/35/17 131/36/17 72/32/17
f 63/35/18 9/1/18 68/4/18 131/36/18
f 131/36/19 68/4/19 11/9/19 65/11/19
f 72/32/20 131/36/20 65/11/20 12/10/20
f 14/26/21 66/25/21 132/37/21 62/38/21
f 66/25/22 13/24/22 71/39/22 132/37/22
f 132/37/23 71/39/23 9/1/23 63/35/23
f 62/38/24 132/37/24 63/35/24 10/31/24
usemtl Material.002
f 17/1/1 83/2/1 133/3/1 80/4/1
f 83/2/2 21/5/2 82/6/2 133/3/2
f 133/3/3 82/6/3 23/7/3 79/8/3
f 80/4/4 133/3/4 79/8/4 19/9/4
f 20/10/5 77/11/5 134/12/5 81/13/5
f 77/11/6 19/9/6 79/14/6 134/12/6
f 134/12/7 79/14/7 23/15/7 76/16/7
f 81/13/8 134/12/8 76/16/8 24/17/8
f 24/18/9 76/19/9 135/20/9 73/21/9
f 76/19/10 23/22/10 82/23/10 135/20/10
f 135/20/11 82/23/11 21/24/11 78/25/11
f 73/21/12 135/20/12 78/25/12 22/26/12
f 22/27/13 74/28/13 136/29/13 73/30/13
f 74/28/14 18/31/14 84/32/14 136/29/14
f 136/29/15 84/32/15 20/10/15 81/33/15
f 73/30/16 136/29/16 81/33/16 24/34/16
f 18/31/17 75/35/17 137/36/17 84/32/17
f 75/35/18 17/1/18 80/4/18 137/36/18
f 137/36/19 80/4/19 19/9/19 77/11/19
f 84/32/20 137/36/20 77/11/20 20/10/20
f 22/26/21 78/25/21 138/37/21 74/38/21
f 78/25/22 21/24/22 83/39/22 138/37/22
f 138/37/23 83/39/23 17/1/23 75/35/23
f 74/38/24 138/37/24 75/35/24 18/31/24
usemtl Material.003
f 25/1/1 95/2/1 139/3/1 92/4/1
f 95/2/2 29/5/2 94/6/2 139/3/2
f 139/3/3 94/6/3 31/7/3 91/8/3
f 92/4/4 139/3/4 91/8/4 27/9/4
f 28/10/5 89/11/5 140/12/5 93/13/5
f 89/11/6 27/9/6 91/14/6 140/12/6
f 140/12/7 91/14/7 31/15/7 88/16/7
f 93/13/8 140/12/8 88/16/8 32/17/8
f 32/18/9 88/19/9 141/20/9 85/21/9
f 88/19/10 31/22/10 94/23/10 141/20/10
f 141/20/11 94/23/11 29/24/11 90/25/11
f 85/21/12 141/20/12 90/25/12 30/26/12
f 30/27/13 86/28/13 142/29/13 85/30/13
f 86/28/14 26/31/14 96/32/14 142/29/14
f 142/29/15 96/32/15 28/10/15 93/33/15
f 85/30/16 142/29/16 93/33/16 32/34/16
f 26/31/17 87/35/17 143/36/17 96/32/17
f 87/35/18 25/1/18 92/4/18 143/36/18
f 143/36/19 92/4/19 27/9/19 89/11/19
f 96/32/20 143/36/20 89/11/20 28/10/20
f 30/26/21 90/25/21 144/37/21 86/38/21
f 90/25/22 29/24/22 95/39/22 144/37/22
f 144/37/23 95/39/23 25/1/23 87/35/23
f 86/38/24 144/37/24 87/35/24 26/31/24
usemtl Material.004
f 33/1/1 107/2/1 145/3/1 104/4/1
f 107/2/2 37/5/2 106/6/2 145/3/2
f 145/3/3 106/6/3 39/7/3 103/8/3
f 104/4/4 145/3/4 103/8/4 35/9/4
f 36/10/5 101/11/5 146/12/5 105/13/5
f 101/11/6 35/9/6 103/14/6 146/12/6
f 146/12/7 103/14/7 39/15/7 100/16/7
f 105/13/8 146/12/8 100/16/8 40/17/8
f 40/18/9 100/19/9 147/20/9 97/21/9
f 100/19/10 39/22/10 106/23/10 147/20/10
f 147/20/11 106/23/11 37/24/11 102/25/11
f 97/21/12 147/20/12 102/25/12 38/26/12
f 38/27/13 98/28/13 148/29/13 97/30/13
f 98/28/14 34/31/14 108/32/14 148/29/14
f 148/29/15 108/32/15 36/10/15 105/33/15
f 97/30/16 148/29/16 105/33/16 40/34/16
f 34/31/17 99/35/17 149/36/17 108/32/17
f 99/35/18 33/1/18 104/4/18 149/36/18
f 149/36/19 104/4/19 35/9/19 101/11/19
f 108/32/20 149/36/20 101/11/20 36/10/20
f 38/26/21 102/25/21 150/37/21 98/38/21
f 102/25/22 37/24/22 107/39/22 150/37/22
f 150/37/23 107/39/23 33/1/23 99/35/23
f 98/38/24 150/37/24 99/35/24 34/31/24
usemtl Material.005
f 41/1/1 119/2/1 151/3/1 116/4/1
f 119/2/2 45/5/2 118/6/2 151/3/2
f 151/3/3 118/6/3 47/7/3 115/8/3
f 116/4/4 151/3/4 115/8/4 43/9/4
f 44/10/5 113/11/5 152/12/5 117/13/5
f 113/11/6 43/9/6 115/14/6 152/12/6
f 152/12/7 115/14/7 47/15/7 112/16/7
f 117/13/8 152/12/8 112/16/8 48/17/8
f 48/18/9 112/19/9 153/20/9 109/21/9
f 112/19/10 47/22/10 118/23/10 153/20/10
f 153/20/11 118/23/11 45/24/11 114/25/11
f 109/21/12 153/20/12 114/25/12 46/26/12
f 46/27/13 110/28/13 154/29/13 109/30/13
f 110/28/14 42/31/14 120/32/14 154/29/14
f 154/29/15 120/32/15 44/10/15 117/33/15
f 109/30/16 154/29/16 117/33/16 48/34/16
f 42/31/17 111/35/17 155/36/17 120/32/17
f 111/35/18 41/1/18 116/4/18 155/36/18
f 155/36/19 116/4/19 43/9/19 113/11/19
f 120/32/20 155/36/20 113/11/20 44/10/20
f 46/26/21 114/25/21 156/37/21 110/38/21
f 114/25/22 45/24/22 119/39/22 156/37/22
f 156/37/23 119/39/23 41/1/23 111/35/23
f 110/38/24 156/37/24 111/35/24 42/31/24
